<?xml version="1.0" encoding="UTF-8" standalone="no"?>
<!DOCTYPE svg PUBLIC "-//W3C//DTD SVG 1.1//EN" "http://www.w3.org/Graphics/SVG/1.1/DTD/svg11.dtd">
<svg width="100%" height="100%" viewBox="0 0 512 140" version="1.1" xmlns="http://www.w3.org/2000/svg" xmlns:xlink="http://www.w3.org/1999/xlink" xml:space="preserve" style="fill-rule:evenodd;clip-rule:evenodd;stroke-linejoin:round;stroke-miterlimit:1.41421;">
    <g transform="matrix(1,0,0,1,-5.04084,-187.155)">
        <g transform="matrix(3.00298,0,0,3.00298,78.0736,308.293)">
            <path d="M13.439,-1.013C9.604,0.245 6.098,0.874 2.923,0.874C-1.02,0.874 -4.184,-0.268 -6.57,-2.554C-8.955,-4.84 -10.148,-8.131 -10.148,-12.426C-10.148,-16.216 -9.297,-19.863 -7.594,-23.369C-5.891,-26.874 -3.548,-29.678 -0.564,-31.779C2.42,-33.881 6.39,-34.932 11.345,-34.932C14.49,-34.932 17.382,-34.579 20.02,-33.873L18.916,-28.351C15.648,-29.701 12.902,-30.376 10.677,-30.376C8.376,-30.376 6.252,-29.735 4.303,-28.454C2.355,-27.173 0.694,-25.033 -0.679,-22.034C-2.052,-19.035 -2.738,-16.093 -2.738,-13.209C-2.738,-10.432 -2.002,-8.2 -0.529,-6.512C0.943,-4.825 2.907,-3.981 5.362,-3.981C7.954,-3.981 11,-4.733 14.497,-6.236L13.439,-1.013Z" style="fill:rgb(60,116,194);fill-rule:nonzero;"/>
        </g>
        <g transform="matrix(3.00298,0,0,3.00298,163.414,308.293)">
            <path d="M-11.046,0L-4.234,-34.058L8.698,-34.058C11.322,-34.058 13.312,-33.49 14.67,-32.355C16.028,-31.219 16.707,-29.578 16.707,-27.43C16.707,-25.988 16.392,-24.542 15.763,-23.092C15.134,-21.643 14.233,-20.277 13.059,-18.996C11.886,-17.715 10.294,-16.576 8.284,-15.579L13.899,0L6.052,0L1.082,-13.922L-1.45,-13.922L-4.234,0L-11.046,0ZM-0.552,-18.455L0.713,-18.455C2.309,-18.455 3.755,-18.774 5.051,-19.41C6.347,-20.047 7.394,-21.037 8.192,-22.379C8.99,-23.721 9.389,-25.029 9.389,-26.303C9.389,-26.978 9.27,-27.557 9.032,-28.04C8.794,-28.523 8.422,-28.891 7.916,-29.144C7.41,-29.398 6.06,-29.524 3.866,-29.524L1.657,-29.524L-0.552,-18.455Z" style="fill:rgb(60,116,194);fill-rule:nonzero;"/>
        </g>
        <g transform="matrix(3.00298,0,0,3.00298,248.613,308.293)">
            <path d="M-10.332,0L-3.521,-34.058L17.765,-34.058L16.868,-29.524L2.37,-29.524L0.46,-19.882L12.657,-19.882L11.805,-15.625L-0.391,-15.625L-2.623,-4.533L13.071,-4.533L12.173,0L-10.332,0Z" style="fill:rgb(60,116,194);fill-rule:nonzero;"/>
        </g>
        <g transform="matrix(3.00298,0,0,3.00298,333.903,308.293)">
            <path d="M-9.481,0L-7.157,-34.058L-1.151,-34.058L-2.807,-12.472L-2.761,-12.472L3.59,-24.991L8.077,-24.991L9.182,-11.828L9.228,-11.828L16.453,-34.058L20.987,-34.058L9.642,0L4.533,0L3.383,-16.338L3.337,-16.338L-4.832,0L-9.481,0Z" style="fill:rgb(60,116,194);fill-rule:nonzero;"/>
        </g>
        <g transform="matrix(3.00298,0,0,3.00298,419.131,308.293)">
            <path d="M-12.219,0L-11.299,-4.602L9.458,-29.524L-5.385,-29.524L-4.487,-34.058L18.432,-34.058L17.535,-29.524L-3.153,-4.533L12.541,-4.533L11.621,0L-12.219,0Z" style="fill:rgb(60,116,194);fill-rule:nonzero;"/>
        </g>
    </g>
</svg>
